# xmcd
#
# Track frame offsets: 
#        150
#        19798
#        33764
#        58628
#        76138
#        92123
#        110848
#        132191
#        165982
#        177021
#        196760
#        212722
#        232508
#
# Disc length: 3626 seconds
#
# Revision: 1
# Processed by: cddbd v1.5.2PL0 Copyright (c) Steve Scherf et al.
# Submitted via: ExactAudioCopy v1.0b1
#
DISCID=940e280d
DTITLE=Kitty, Daisy and Lewis - Smoking In Heaven
DYEAR=2011
DGENRE=Rock and Roll
TTITLE0=Tomorrow
TTITLE1=Will I Ever
TTITLE2=Baby Don't You Know
TTITLE3=Don't Make A Fool Out Of Me
TTITLE4=I'm Going Back
TTITLE5=Paan Man Boogie
TTITLE6=Messing With My Life
TTITLE7=What Quid?
TTITLE8=You'll Soon Be Here
TTITLE9=I'm So Sorry
TTITLE10=You'll Be Sorry
TTITLE11=I'm Coming Home
TTITLE12=Smoking In Heaven
EXTD=
EXTT0=
EXTT1=
EXTT2=
EXTT3=
EXTT4=
EXTT5=
EXTT6=
EXTT7=
EXTT8=
EXTT9=
EXTT10=
EXTT11=
EXTT12=
PLAYORDER=
